<?xml version="1.0" encoding="iso-8859-1"?>
<!-- Generator: Adobe Illustrator 19.0.0, SVG Export Plug-In . SVG Version: 6.00 Build 0)  -->
<svg version="1.1" id="Capa_1" xmlns="http://www.w3.org/2000/svg" xmlns:xlink="http://www.w3.org/1999/xlink" x="0px" y="0px"
	 viewBox="0 0 512 512" style="enable-background:new 0 0 512 512;" xml:space="preserve">
<path style="fill:#35D344;" d="M136,0C78.1,0,31,47.1,31,105s47.1,105,105,105s105-47.1,105-105S193.9,0,136,0z"/>
<path style="fill:#1DAA2B;" d="M241,105c0,57.9-47.1,105-105,105V0C193.9,0,241,47.1,241,105z"/>
<path style="fill:#FEDB41;" d="M136,30c-41.4,0-75,33.6-75,75s33.6,75,75,75s75-33.6,75-75S177.4,30,136,30z"/>
<path style="fill:#FCBF29;" d="M211,105c0,41.4-33.6,75-75,75V30C177.4,30,211,63.6,211,105z"/>
<path style="fill:#E4E4ED;" d="M452.199,90L444.1,195.599L419.8,262.2c-40.501,40.8-107.1,40.8-147.601,0
	c-0.298-0.3-0.899-0.901-1.199-1.199c-27.001-25.501-68.699-27.601-98.101-4.2l-69,16.8L89.801,90H452.199z"/>
<path style="fill:#DADAEF;" d="M452.199,90L444.1,195.599L419.8,262.2c-40.501,40.8-107.1,40.8-147.601,0
	c-0.298-0.3-0.899-0.901-1.199-1.199V90H452.199z"/>
<polygon style="fill:#15B7BE;" points="376.3,90 338.8,278.099 309.401,272.1 345.7,90 "/>
<path style="fill:#1DE8F1;" d="M444.101,195.599L419.801,512H122.199l-18.3-238.4l50.099-40.201c34.2-27.299,80.7-30,117.001-9
	c8.101,4.501,15.3,9.901,22.2,16.8c29.101,28.801,76.5,28.801,105.601,0L444.101,195.599z"/>
<g>
	<path style="fill:#1BD9DE;" d="M444.101,195.599L419.801,512H271V224.399c8.101,4.501,15.3,9.901,22.2,16.8
		c29.101,28.801,76.5,28.801,105.601,0L444.101,195.599z"/>
	<path style="fill:#1BD9DE;" d="M481,0v30h-80.4c-7.2,0-13.2,5.099-14.7,12.001L376.3,90h-30.6l10.8-53.699
		C360.7,15.3,379.3,0,400.6,0H481z"/>
</g>
<path style="fill:#E4E4ED;" d="M226,251.4L162.4,315l63.6,63.6l63.6-63.6L226,251.4z"/>
<g>
	<path style="fill:#DADAEF;" d="M361,450h-90v-90h90V450z"/>
	<polygon style="fill:#DADAEF;" points="271,296.4 289.6,315 271,333.6 	"/>
</g>
<g>
</g>
<g>
</g>
<g>
</g>
<g>
</g>
<g>
</g>
<g>
</g>
<g>
</g>
<g>
</g>
<g>
</g>
<g>
</g>
<g>
</g>
<g>
</g>
<g>
</g>
<g>
</g>
<g>
</g>
</svg>
