<?xml version="1.0" encoding="iso-8859-1"?>
<!-- Generator: Adobe Illustrator 21.0.0, SVG Export Plug-In . SVG Version: 6.00 Build 0)  -->
<svg version="1.1" id="Capa_1" xmlns="http://www.w3.org/2000/svg" xmlns:xlink="http://www.w3.org/1999/xlink" x="0px" y="0px"
	 viewBox="0 0 512 512" style="enable-background:new 0 0 512 512;" xml:space="preserve">
<polygon style="fill:#FFCE53;" points="308.5,234.5 203.5,294.5 338.5,294.5 338.5,234.5 "/>
<g>
	<rect x="173.5" y="234.5" style="fill:#FFE373;" width="135" height="60"/>
	<polygon style="fill:#FFE373;" points="384.5,504.5 414.5,504.5 444.5,459.5 444.5,444.5 384.5,444.5 	"/>
</g>
<g>
	<polygon style="fill:#FFEFB0;" points="67.5,459.5 97.5,504.5 384.5,504.5 414.5,459.5 414.5,444.5 67.5,444.5 	"/>
	<path style="fill:#FFEFB0;" d="M489.5,429.5h-30v30h30c8.284,0,15-6.716,15-15S497.784,429.5,489.5,429.5z"/>
</g>
<path style="fill:#FFFFFF;" d="M474.5,444.5c0-8.284-6.716-15-15-15h-437c-8.284,0-15,6.716-15,15s6.716,15,15,15h437
	C467.784,459.5,474.5,452.784,474.5,444.5z"/>
<path style="fill:#FF6529;" d="M338.5,264.5h-30v135h30c37.279,0,67.5-30.221,67.5-67.5S375.779,264.5,338.5,264.5z"/>
<path style="fill:#FF812D;" d="M376,332c0-37.279-30.221-67.5-67.5-67.5h-135c-37.279,0-67.5,30.221-67.5,67.5
	s30.221,67.5,67.5,67.5h135C345.779,399.5,376,369.279,376,332z"/>
<g>
	<circle style="fill:#FF6529;" cx="278.5" cy="369.5" r="7.5"/>
	<circle style="fill:#FF6529;" cx="323.5" cy="294.5" r="7.5"/>
	<circle style="fill:#FF6529;" cx="346" cy="332" r="7.5"/>
	<circle style="fill:#FF6529;" cx="173.5" cy="294.5" r="7.5"/>
</g>
<path style="fill:#DE2318;" d="M256,114.5v120c33.137,0,60-26.863,60-60S289.137,114.5,256,114.5z"/>
<path style="fill:#FF2E23;" d="M286,174.5c0-33.137-13.431-60-30-60c-33.137,0-60,26.863-60,60s26.863,60,60,60
	C272.569,234.5,286,207.637,286,174.5z"/>
<path d="M489.5,422h-467C10.093,422,0,432.093,0,444.5S10.093,467,22.5,467h40.986l27.773,41.66c1.391,2.086,3.732,3.34,6.24,3.34
	h317c2.508,0,4.85-1.253,6.24-3.34L448.514,467H489.5c12.406,0,22.5-10.093,22.5-22.5S501.906,422,489.5,422z M489.5,452h-45.023
	c-0.028,0-316.977,0-316.977,0c-4.142,0-7.5,3.358-7.5,7.5s3.358,7.5,7.5,7.5h302.986l-20,30H101.514l-20-30H97.5
	c4.142,0,7.5-3.358,7.5-7.5s-3.358-7.5-7.5-7.5H67.546c-0.015,0-45.046,0-45.046,0c-4.136,0-7.5-3.364-7.5-7.5s3.364-7.5,7.5-7.5
	h467c4.136,0,7.5,3.364,7.5,7.5S493.636,452,489.5,452z"/>
<path d="M173.5,407h165c41.355,0,75-33.645,75-75c0-38.824-29.653-70.849-67.5-74.624V234.5c0-4.142-3.357-7.5-7.5-7.5h-40.139
	c15.319-12.384,25.139-31.313,25.139-52.5c0-34.684-26.298-63.329-60-67.073V7.5c0-4.142-3.357-7.5-7.5-7.5
	c-4.142,0-7.5,3.358-7.5,7.5v99.927c-33.702,3.744-60,32.389-60,67.073c0,21.187,9.82,40.116,25.139,52.5H173.5
	c-4.142,0-7.5,3.358-7.5,7.5v22.876c-37.846,3.775-67.5,35.8-67.5,74.624C98.5,373.355,132.145,407,173.5,407z M203.5,174.5
	c0-28.949,23.551-52.5,52.5-52.5c28.948,0,52.5,23.551,52.5,52.5S284.948,227,256,227C227.051,227,203.5,203.449,203.5,174.5z
	 M331,242v15H181v-15H331z M173.5,272h165c33.084,0,60,26.916,60,60s-26.916,60-60,60h-165c-33.084,0-60-26.916-60-60
	S140.416,272,173.5,272z"/>
<g>
</g>
<g>
</g>
<g>
</g>
<g>
</g>
<g>
</g>
<g>
</g>
<g>
</g>
<g>
</g>
<g>
</g>
<g>
</g>
<g>
</g>
<g>
</g>
<g>
</g>
<g>
</g>
<g>
</g>
</svg>
